<?xml version="1.0" encoding="utf-8"?>
<!-- Generator: Adobe Illustrator 27.2.0, SVG Export Plug-In . SVG Version: 6.00 Build 0)  -->
<svg version="1.1" id="Layer_1" xmlns="http://www.w3.org/2000/svg" xmlns:xlink="http://www.w3.org/1999/xlink" x="0px" y="0px"
	 viewBox="0 0 512 512" style="enable-background:new 0 0 512 512;" xml:space="preserve">
<style type="text/css">
	.st0{fill:#212121;}
</style>
<g>
	<path class="st0" d="M281.63,153.78c81.11,0,127.12,53.69,133.81,118.52h2.05c52.2,0,94.51,42.21,94.51,94.27
		c0,52.06-42.31,94.27-94.51,94.27H145.77c-52.2,0-94.51-42.2-94.51-94.27c0-52.06,42.31-94.27,94.51-94.27h2.05
		C154.54,207.04,200.52,153.78,281.63,153.78z M117.47,51.19c20.35,1.09,40.11,6.96,57.93,17.25c27,15.59,46.28,39.39,56.53,66.43
		c-50.8,14.4-87.15,51.24-102.24,101.02l-1.78,6.29l-1.48,6.09l-5.28,0.98c-29.27,6.15-54.65,23.06-71.77,46.45l-3.95-2.16
		c-16.83-9.72-31.12-22.91-42.04-38.76c-7.15-10.39-2.53-24.74,9.35-28.99c42.04-15.05,64.7-31.98,77.65-56.72
		c14.15-27.01,16.76-55.65,7.37-94.14C94.72,62.42,104.6,50.5,117.47,51.19z"/>
</g>
</svg>
