<?xml version="1.0" encoding="utf-8"?>
<!-- Generator: Adobe Illustrator 24.1.1, SVG Export Plug-In . SVG Version: 6.00 Build 0)  -->
<svg version="1.1" id="Layer_1" xmlns="http://www.w3.org/2000/svg" xmlns:xlink="http://www.w3.org/1999/xlink" x="0px" y="0px"
	 viewBox="0 0 512 512" style="enable-background:new 0 0 512 512;" xml:space="preserve">
<g>
	<path d="M0,253.4c0,26.2,7.9,49.8,23.8,71c16,21,36.2,35.2,61.2,42.9l-15.5,39.5c-1,3.3,0,5,3.3,5h50.5l-27.2,97.4h6.9l97.2-130.7
		l0.2-3.3l-3.6-1.7h-51.7l58.8-111.2c1.7-3.3,0.7-5.2-3.1-5.2h-70.5c-2.1,0-3.8,1.2-4.5,3.3l-26.4,69.8c-16.9-4.3-31-13.6-42.4-27.9
		C46,287.9,40.2,272,40.2,254.1c0-20,6.7-37.4,20.2-52.2s30.2-23.1,50-25l12.4-1.7c3.1,0,4.8-1.4,4.8-4l1.7-12.4
		c2.6-26,13.3-47.6,32.6-64.8c19.3-17.4,41.9-26,68.1-26c26,0,48.8,8.6,68.1,26c19.3,17.4,30.5,39,33.3,64.8l1.7,13.8
		c0,2.6,1.4,4,4.3,4H376c21.7,0,40,7.6,55.5,22.6c15.2,15,23.1,33.3,23.1,54.3c0,20.5-7.1,38.1-21.4,53.1
		c-14.3,15-31.7,23.1-52.4,24.8c-2.9,0-4.5,1.4-4.5,4.3v32.9c0,2.6,1.4,4,4.5,4c31.7-1,58.6-13.1,80.7-36.2
		c22.2-23.1,33.1-50.5,33.1-82.6c0-17.4-3.3-33.1-9.8-47.6c18.1-23.8,27.2-50,27.2-78.3c0-16.9-3.3-33.1-10-48.6
		c-6.7-15.5-15.7-28.6-26.7-39.8c-11-11.2-24.5-20-40-26.7c-15.5-6.7-31.7-10-48.3-10c-17.6,0-34.3,3.6-50.5,10.7
		c-16,7.2-30,17.2-41.4,30c-19.5-10.5-41-15.7-64.3-15.7c-33.8,0-63.8,10.5-89.8,31.2s-42.9,47.6-50.2,80.3
		c-26.4,6.2-48.1,19.8-65.3,41.2C8.3,201.9,0,226,0,253.4z M194.6,488.4c0,4.3,1.2,8.3,3.8,12.2c2.6,4,6.2,6.4,11,7.1l1.9,0.2
		l2.1,0.2h1.9c10.2-0.7,16.4-5.5,19-14.5l6.9-25.2c1.4-5.2,0.7-10.2-2.1-15c-2.9-4.8-7.1-8.1-12.6-9.8c-5.2-1.4-10.2-0.7-15,1.9
		c-4.8,2.9-8.1,7.1-9.8,12.6l-6,23.8C195,486.3,194.6,488.2,194.6,488.4z M226.5,374.8c0,3.6,1.2,7.1,3.6,10.7
		c2.4,3.6,6.2,6.2,11,8.1c5.2,1.9,10.2,1.4,15-1.2c4.8-2.6,7.9-6.9,9.5-12.6l7.2-24.8c1.4-6,1-11.4-1.9-16.2
		c-2.9-4.8-6.9-7.6-12.6-8.8c-5.2-1.7-10.5-1.2-15.2,1.7c-4.8,2.8-8.1,6.9-10,12.6l-6,24.3l-0.2,1.9l-0.2,2.1V374.8z M293.9,413.4
		c0,4.5,1.2,8.6,3.8,12.4c2.6,3.8,6.2,6.4,11.2,7.6c3.8,0.7,6,1.2,6.4,1.2c9.3,0,15.5-4.8,18.3-14.3l5.7-25.2
		c1.7-5.2,1.2-10.2-1.4-15c-2.6-4.8-6.4-8.1-11.9-9.8c-6-1.4-11.4-0.7-16.2,2.2c-5,2.8-7.8,7.1-9,12.6l-6.7,23.6L293.9,413.4z
		 M326.3,300.3c0,3.8,1.2,7.6,3.8,11.2c2.6,3.6,6.4,6.4,11.7,8.1c4,0.5,6.2,0.7,6.2,0.7c2.9,0,5.7-0.7,9.1-1.9
		c4.5-2.4,7.8-6.4,9.3-12.4l6.9-24.8c1.4-5.2,0.7-10.2-2.1-15c-2.9-4.8-7.2-8.1-12.6-9.8c-5.5-1.7-10.5-1.2-15.2,1.7
		c-4.8,2.9-7.9,6.9-9.5,12.6l-6.7,24.3L326.3,300.3z M328.9,65.7c15.7-15.2,35.2-22.9,58.3-22.9c23.3,0,43.3,8.3,59.5,24.8
		c16.4,16.4,24.5,36.4,24.5,59.8c0,15-3.8,29-11.7,42.4c-23.6-22.9-51.2-34.3-83.1-34.3h-7.6C361.7,107.9,348.4,84.5,328.9,65.7z"/>
</g>
</svg>
