<?xml version="1.0" encoding="utf-8"?>
<!-- Generator: Adobe Illustrator 24.1.1, SVG Export Plug-In . SVG Version: 6.00 Build 0)  -->
<svg version="1.1" id="Layer_1" xmlns="http://www.w3.org/2000/svg" xmlns:xlink="http://www.w3.org/1999/xlink" x="0px" y="0px"
	 viewBox="0 0 512 512" style="enable-background:new 0 0 512 512;" xml:space="preserve">
<g>
	<path d="M458.6,341.5l-67-13.7L432,317c14.5-3.9,23.2-18.8,19.3-33.4c-3.9-14.5-18.8-23.2-33.4-19.3l-41.1,11
		c1-6.3,1.9-12.7,1.9-19.3s-0.9-13-1.9-19.3l41.2,11l7.1,0.9c12,0,23.1-8,26.3-20.2c3.9-14.5-4.8-29.5-19.3-33.4l-40.4-10.8l67-13.7
		c5.9-1.2,11.5-4.3,15.7-9.1c10.5-11.9,9.5-30.1-2.4-40.6c-11.9-10.5-30.1-9.5-40.6,2.4l-45.4,51.1l10.9-40.3
		c3.9-14.5-4.7-29.5-19.3-33.4c-14.5-3.9-29.5,4.7-33.4,19.2L333,161.3c-10-8.1-21-14.8-33.2-19.5l30.1-30.1
		c10.7-10.7,10.7-27.9,0-38.6s-27.9-10.7-38.6,0l-29.6,29.6l21.6-64.9c1.9-5.7,2.1-12,0-18.2c-5-15-21.3-23.2-36.4-18.2
		c-15,5-23.2,21.3-18.2,36.4l21.6,64.9l-29.6-29.6c-10.7-10.7-27.9-10.7-38.6,0c-10.7,10.7-10.7,27.9,0,38.6l30.1,30.1
		c-12.2,4.7-23.3,11.4-33.2,19.5l-11-41.3c-3.9-14.6-19-23.2-33.4-19.3c-14.6,3.9-23.2,18.8-19.3,33.4l10.8,40.5l-45.3-51.2
		c-4-4.5-9.4-7.8-15.8-9.1c-15.6-3.2-30.7,6.8-33.9,22.4s6.8,30.8,22.4,34l66.9,13.7L80,195.1c-14.5,3.9-23.2,18.8-19.3,33.4
		c3.2,12.2,14.3,20.2,26.3,20.2l7.1-0.9l41.1-11c-1.1,6.3-2,12.7-2,19.3c0,6.6,0.9,13,1.9,19.3l-41.1-11
		c-14.5-3.9-29.5,4.7-33.4,19.3c-3.9,14.5,4.8,29.5,19.3,33.4l40.4,10.8l-66.9,13.7c-5.9,1.2-11.5,4.3-15.7,9.1
		c-10.6,11.9-9.5,30.1,2.4,40.6c11.9,10.5,30.1,9.5,40.6-2.4l45.4-51.2L115.3,378c-3.9,14.5,4.7,29.5,19.3,33.4l7.1,0.9
		c12,0,23-8,26.3-20.2l11.1-41.3c10,8.1,21,14.8,33.3,19.5l-30.1,30.1c-10.7,10.6-10.7,27.9,0,38.6c10.7,10.7,27.9,10.7,38.6,0
		l19.3-19.3h6.9l-18.2,54.5c-1.9,5.7-2.1,12,0,18.2c5,15,21.3,23.2,36.4,18.2c15.1-5,23.2-21.3,18.2-36.4l-18.2-54.5h6.9l19.3,19.3
		c5.3,5.3,12.3,8,19.3,8c7,0,14-2.7,19.3-8c10.7-10.6,10.7-27.9,0-38.6l-30.1-30.1c12.2-4.7,23.3-11.4,33.3-19.5l11.1,41.4
		c3.3,12.2,14.3,20.2,26.3,20.2l7.1-0.9c14.5-3.9,23.2-18.8,19.3-33.4L386,337.6l45.3,51.1c4,4.5,9.4,7.8,15.7,9.1
		c15.6,3.2,30.8-6.8,33.9-22.4C484.2,359.9,474.1,344.7,458.6,341.5z M256,324.2c-37.6,0-68.2-30.6-68.2-68.2s30.6-68.2,68.2-68.2
		s68.2,30.6,68.2,68.2S293.6,324.2,256,324.2z"/>
</g>
</svg>
