<?xml version="1.0" encoding="utf-8"?>
<!-- Generator: Adobe Illustrator 24.1.1, SVG Export Plug-In . SVG Version: 6.00 Build 0)  -->
<svg version="1.1" id="Layer_1" xmlns="http://www.w3.org/2000/svg" xmlns:xlink="http://www.w3.org/1999/xlink" x="0px" y="0px"
	 viewBox="0 0 512 512" style="enable-background:new 0 0 512 512;" xml:space="preserve">
<g>
	<path d="M6.5,263.9c0,25.4,7.5,48,22.6,67.9c15.1,19.9,34.8,33.6,59,40.9l-14.9,38.9c-0.9,3.2,0,4.8,3.2,4.8H125L95.5,512h6.4
		l96.7-128.5l0.4-3.2l-3.2-1.6H146l56.5-106.1c1.6-3.2,0.7-5-3-5h-67.7c-2.1,0-3.7,1.1-5,3.4l-24.5,65.9
		c-16.2-4.1-29.7-13-40.7-26.8c-11-13.7-16.2-29-16.2-46c0-19,6.4-35.4,19.4-49.6c13-13.9,29-22.2,48-24.5l12.1-1.6
		c3,0,4.6-1.4,4.6-4.1l1.6-11.7c2.5-24.7,12.8-45.5,31.3-62.2s40.2-25.2,65.2-25.2c24.9,0,46.6,8.5,65.4,25.2
		c18.7,16.7,29.3,37.5,32,62l1.6,13c0,2.7,1.4,4.3,3.9,4.3h37c20.8,0,38.4,7.3,53.3,21.7c14.9,14.4,22.2,32,22.2,52.1
		c0,19.4-6.9,36.4-20.6,50.5c-13.7,14.2-30.4,22.2-50.3,23.6c-2.7,0-4.3,1.4-4.3,4.3v31.1c0,2.7,1.4,4.1,4.3,4.1
		c30.4-0.9,56.2-12.6,77.5-34.5c21.3-22.2,31.8-48.5,31.8-78.9c0-19.9-5-38.4-15.1-56c17.4-16.9,29-36.8,34.5-59.9l4.3-15.5l0.2-1.6
		c0-1.8-1.1-3-3.4-3.7l-14.2-3.9c-13-3.9-24.2-10.3-33.4-19.2c-9.2-8.9-15.6-18.3-19.4-27.9s-5.7-19.2-5.5-28.8
		c0-6.4,0.7-12.8,2.3-19.4l2.5-13.9c0.5-2.3-0.5-4.1-3.2-5.3l-18.3-5.5C402.1,1.2,392.7,0,384.5,0c-8.5-0.2-17.1,0.7-25.8,2.7
		c-8.7,1.8-17.8,5-27.2,9.1c-9.4,4.1-18.3,10.3-27,18.1c-8.7,7.8-16.2,16.9-22.6,27.4c-19-7.1-37-10.5-54-10.5
		c-32.2,0-61,10.1-86,30.2c-24.9,20.1-41.2,45.7-48.2,76.8c-25.4,5.9-46.2,19.2-62.6,39.8C14.8,214.1,6.5,237.6,6.5,263.9z
		 M193.3,489.6c0,3.7,1.1,7.1,3.4,10.7c2.3,3.7,5.7,6.2,10.3,7.5c3.7,0.7,5.7,1.1,6.2,1.1c2.1,0,5-0.7,8.5-2.3
		c4.8-2.3,8-6.2,9.6-12.1l6.4-24c1.4-5,0.9-9.8-1.8-14.4c-2.7-4.6-6.6-7.8-12.1-9.4c-5-1.4-9.8-0.7-14.4,1.8
		c-4.6,2.7-7.8,6.9-9.4,12.1l-6.2,22.9L193.3,489.6z M224,380.7c0,9.8,4.6,15.6,13.9,17.1c3.2,0.7,5.3,1.1,6.2,1.1
		c8.7,0,14.4-4.8,17.6-14.4l6.9-23.3c1.4-5,0.7-9.8-1.8-14.4c-2.5-4.6-6.9-7.8-12.1-9.4c-5-1.6-10.1-1.1-14.6,1.6
		c-4.6,2.7-7.8,6.6-9.4,12.1l-5.7,23.1C224.2,376.4,224,378.5,224,380.7z M288.2,418.9c0.2,3.9,1.6,7.5,4.1,11
		c2.5,3.4,6.2,6.2,11,7.8c3.7,0.9,6.2,1.4,7.5,1.4c7.8,0,13.3-5.3,16.2-15.5l5.5-23.3c1.6-5.3,1.1-10.3-1.4-15.1
		c-2.5-4.8-6.4-7.8-11.4-9.4c-5.7-1.4-11-0.7-15.6,1.8c-4.6,2.7-7.5,6.9-8.5,12.1l-6.6,23.5l-0.5,2.7L288.2,418.9z M315.2,78.2
		c7.5-12.8,17.8-22.6,30.6-29.5c12.8-6.9,26.3-10.3,40.2-10.3h5v7.3c0,14.6,2.5,28.8,7.8,42.5s12.8,26.3,23.3,38
		c10.3,11.7,22.6,20.8,36.8,27.7c-3.9,8.7-9.6,16.5-17.4,23.5c-20.8-17.8-45.3-26.8-73.6-26.8h-7.5
		C353.9,121.9,338.8,97.7,315.2,78.2z M319.6,309.2c0,9.8,5,16.2,14.9,18.7c3.2,0.5,5.5,0.9,6.9,0.9c8.2,0,13.9-5,16.9-14.9
		l6.4-23.8c0.2-1.1,0.2-2.7,0.2-5c0.2-3.9-0.7-7.5-3.2-11.2c-2.5-3.7-6.2-6.2-11.2-7.5l-2.3-0.2l-3-0.2c-3.7,0-7.3,1.1-11,3.4
		c-3.7,2.3-6.2,6-7.5,10.8l-6.6,23.3l-0.2,2.3L319.6,309.2z"/>
</g>
</svg>
